<?xml version="1.0" encoding="UTF-8"?><svg xmlns="http://www.w3.org/2000/svg" viewBox="0 0 184.07 85.95"><g id="a"/><g id="b"><g id="c"><g id="d"><g id="e"><path d="M20.41,58.18V20.57C20.41,9.21,29.62,0,40.98,0h122.52c11.36,0,20.57,9.21,20.57,20.57v44.81c0,11.36-9.21,20.57-20.57,20.57H5.74c-5.39,0-7.79-6.76-3.62-10.17l16.17-13.17c1.34-1.09,2.11-2.72,2.11-4.44h0Z" style="fill:#e328bf;"/><g style="isolation:isolate;"><path d="M39.75,21.99h7.42v17.18h.13c.52-.82,1.15-1.56,1.89-2.21,.74-.65,1.55-1.2,2.44-1.66,.89-.46,1.82-.8,2.8-1.04,.98-.24,1.94-.36,2.9-.36,2.65,0,4.96,.47,6.93,1.4,1.97,.93,3.61,2.21,4.91,3.84,1.3,1.63,2.28,3.53,2.93,5.69,.65,2.17,.98,4.49,.98,6.96,0,2.26-.29,4.45-.88,6.57-.59,2.13-1.48,4-2.67,5.63-1.19,1.63-2.7,2.93-4.52,3.91-1.82,.98-3.97,1.46-6.44,1.46-1.13,0-2.27-.08-3.42-.23-1.15-.15-2.25-.45-3.29-.88-1.04-.43-1.98-1-2.83-1.69-.85-.69-1.55-1.6-2.12-2.73h-.13v4.62h-7.03V21.99Zm25.9,29.68c0-1.52-.2-2.99-.59-4.42-.39-1.43-.98-2.7-1.76-3.81-.78-1.11-1.76-2-2.93-2.67-1.17-.67-2.52-1.01-4.04-1.01-3.12,0-5.48,1.08-7.06,3.25-1.58,2.17-2.38,5.05-2.38,8.66,0,1.69,.21,3.27,.62,4.72,.41,1.45,1.03,2.7,1.85,3.74,.82,1.04,1.81,1.87,2.96,2.47,1.15,.61,2.48,.91,4,.91,1.69,0,3.12-.35,4.3-1.04,1.17-.69,2.14-1.59,2.9-2.7,.76-1.11,1.3-2.36,1.63-3.77,.33-1.41,.49-2.85,.49-4.33Z" style="fill:#fff;"/><path d="M85.11,53.56c0,1.3,.18,2.56,.55,3.77,.37,1.22,.92,2.28,1.66,3.19,.74,.91,1.67,1.64,2.8,2.18,1.13,.54,2.47,.81,4.04,.81,2.17,0,3.92-.47,5.24-1.4,1.32-.93,2.31-2.33,2.96-4.2h7.03c-.39,1.82-1.06,3.45-2.02,4.88s-2.1,2.64-3.45,3.61c-1.34,.98-2.85,1.71-4.52,2.21-1.67,.5-3.42,.75-5.24,.75-2.65,0-4.99-.43-7.03-1.3-2.04-.87-3.76-2.08-5.17-3.64-1.41-1.56-2.47-3.43-3.19-5.6-.72-2.17-1.07-4.56-1.07-7.16,0-2.38,.38-4.65,1.14-6.8,.76-2.15,1.84-4.03,3.25-5.66,1.41-1.63,3.11-2.92,5.11-3.87,2-.95,4.25-1.43,6.77-1.43,2.65,0,5.02,.55,7.13,1.66,2.1,1.11,3.85,2.57,5.24,4.39s2.4,3.92,3.03,6.28c.63,2.37,.79,4.81,.49,7.32h-24.73Zm17.31-4.88c-.09-1.17-.34-2.3-.75-3.38-.41-1.08-.98-2.03-1.69-2.83s-1.58-1.45-2.6-1.95c-1.02-.5-2.16-.75-3.42-.75s-2.48,.23-3.55,.68c-1.06,.46-1.97,1.08-2.73,1.89-.76,.8-1.37,1.75-1.82,2.83-.46,1.08-.71,2.26-.75,3.51h17.31Z" style="fill:#fff;"/><path d="M112.12,34.81h5.6v-10.09h7.42v10.09h6.7v5.53h-6.7v17.96c0,.78,.03,1.45,.1,2.02,.06,.56,.22,1.04,.46,1.43s.6,.68,1.07,.88c.48,.19,1.13,.29,1.95,.29,.52,0,1.04,0,1.56-.03,.52-.02,1.04-.1,1.56-.23v5.73c-.83,.09-1.63,.17-2.41,.26-.78,.09-1.58,.13-2.41,.13-1.95,0-3.53-.18-4.72-.55-1.19-.37-2.13-.91-2.8-1.63s-1.13-1.62-1.37-2.7c-.24-1.08-.38-2.32-.42-3.71v-19.85h-5.6v-5.53Z" style="fill:#fff;"/><path d="M165.35,60.98c0,.91,.12,1.56,.36,1.95,.24,.39,.7,.59,1.4,.59h.78c.3,0,.65-.04,1.04-.13v5.14c-.26,.09-.6,.18-1.01,.29-.41,.11-.84,.21-1.27,.29-.43,.09-.87,.15-1.3,.2s-.8,.07-1.11,.07c-1.52,0-2.78-.3-3.77-.91s-1.65-1.67-1.95-3.19c-1.48,1.43-3.29,2.47-5.43,3.12-2.15,.65-4.22,.98-6.21,.98-1.52,0-2.97-.21-4.36-.62-1.39-.41-2.61-1.02-3.68-1.82-1.06-.8-1.91-1.82-2.54-3.06-.63-1.24-.94-2.68-.94-4.33,0-2.08,.38-3.77,1.14-5.08,.76-1.3,1.76-2.32,2.99-3.06,1.24-.74,2.62-1.27,4.17-1.59s3.09-.57,4.65-.75c1.34-.26,2.62-.44,3.84-.55,1.21-.11,2.29-.29,3.22-.55,.93-.26,1.67-.66,2.21-1.2,.54-.54,.81-1.36,.81-2.44,0-.95-.23-1.74-.68-2.34-.46-.61-1.02-1.07-1.69-1.4-.67-.33-1.42-.54-2.25-.65-.83-.11-1.61-.16-2.34-.16-2.08,0-3.8,.43-5.14,1.3-1.34,.87-2.1,2.21-2.28,4.04h-7.42c.13-2.17,.65-3.97,1.56-5.4s2.07-2.58,3.48-3.45c1.41-.87,3-1.47,4.78-1.82,1.78-.35,3.6-.52,5.47-.52,1.65,0,3.28,.17,4.88,.52,1.61,.35,3.05,.91,4.33,1.69,1.28,.78,2.31,1.79,3.09,3.03,.78,1.24,1.17,2.74,1.17,4.52v17.31Zm-7.42-9.37c-1.13,.74-2.52,1.18-4.17,1.33-1.65,.15-3.3,.38-4.95,.68-.78,.13-1.54,.31-2.28,.55-.74,.24-1.39,.56-1.95,.98s-1.01,.95-1.33,1.63-.49,1.49-.49,2.44c0,.82,.24,1.52,.72,2.08,.48,.56,1.05,1.01,1.72,1.33,.67,.33,1.41,.55,2.21,.68,.8,.13,1.53,.2,2.18,.2,.82,0,1.71-.11,2.67-.33,.95-.22,1.85-.59,2.7-1.11,.85-.52,1.55-1.18,2.12-1.98,.56-.8,.85-1.79,.85-2.96v-5.53Z" style="fill:#fff;"/></g></g></g></g></g></svg>