<?xml version="1.0" encoding="UTF-8"?><svg id="a" xmlns="http://www.w3.org/2000/svg" viewBox="0 0 997.21 997.21"><defs><style>.b{fill:#fff;}</style></defs><path class="b" d="M345.19,997.21H115.06c-63.55,0-115.06-51.52-115.06-115.06v-230.13c0-63.55,51.52-115.06,115.06-115.06h230.13c63.55,0,115.06,51.52,115.06,115.06v230.13c0,63.55-51.52,115.06-115.06,115.06ZM115.06,613.67c-21.18,0-38.35,17.17-38.35,38.35v230.13c0,21.18,17.17,38.35,38.35,38.35h230.13c21.18,0,38.35-17.17,38.35-38.35v-230.13c0-21.18-17.17-38.35-38.35-38.35H115.06Zm709.56,383.54h-172.59c-63.55,0-115.06-51.52-115.06-115.06v-230.13c0-63.55,51.52-115.06,115.06-115.06h230.13c63.55,0,115.06,51.52,115.06,115.06v172.59c0,21.18-17.17,38.35-38.35,38.35s-38.35-17.17-38.35-38.35v-172.59c0-21.18-17.17-38.35-38.35-38.35h-230.13c-21.18,0-38.35,17.17-38.35,38.35v230.13c0,21.18,17.17,38.35,38.35,38.35h172.59c21.18,0,38.35,17.17,38.35,38.35s-17.17,38.35-38.35,38.35ZM345.19,460.25H115.06C51.52,460.25,0,408.74,0,345.19V115.06C0,51.52,51.52,0,115.06,0h230.13c63.55,0,115.06,51.52,115.06,115.06v230.13c0,63.55-51.52,115.06-115.06,115.06ZM115.06,76.71c-21.18,0-38.35,17.17-38.35,38.35v230.13c0,21.18,17.17,38.35,38.35,38.35h230.13c21.18,0,38.35-17.17,38.35-38.35V115.06c0-21.18-17.17-38.35-38.35-38.35H115.06ZM882.15,460.25h-230.13c-63.55,0-115.06-51.52-115.06-115.06V115.06c0-63.55,51.52-115.06,115.06-115.06h230.13c63.55,0,115.06,51.52,115.06,115.06v230.13c0,63.55-51.52,115.06-115.06,115.06ZM652.02,76.71c-21.18,0-38.35,17.17-38.35,38.35v230.13c0,21.18,17.17,38.35,38.35,38.35h230.13c21.18,0,38.35-17.17,38.35-38.35V115.06c0-21.18-17.17-38.35-38.35-38.35h-230.13Z"/></svg>