<?xml version="1.0" encoding="UTF-8"?><svg xmlns="http://www.w3.org/2000/svg" viewBox="0 0 45 38.57"><g id="a"/><g id="b"><g id="c"><path d="M22.5,0C10.07,0,0,8.63,0,19.29c0,1.33,.16,2.63,.46,3.89,2.22,3.83,3.76,1.41,10.79-2.1,7.16-3.58,0,5-2.5,10-.77,1.54-.35,2.84,.7,3.91,3.68,2.25,8.18,3.59,13.05,3.59,12.43,0,22.5-8.63,22.5-19.28S34.93,0,22.5,0ZM12.5,13.57c-2.07,0-3.75-1.68-3.75-3.75s1.68-3.75,3.75-3.75,3.75,1.68,3.75,3.75-1.68,3.75-3.75,3.75Zm13.56,16.99c-.49,1.68-3.08,2.41-5.77,1.61-2.69-.79-4.47-2.79-3.98-4.48,.49-1.68,3.08-2.41,5.77-1.61,2.69,.79,4.47,2.79,3.98,4.47Zm-1.06-19.49c-2.07,0-3.75-1.68-3.75-3.75s1.68-3.75,3.75-3.75,3.75,1.68,3.75,3.75-1.68,3.75-3.75,3.75Zm10,18.75c-2.07,0-3.75-1.68-3.75-3.75s1.68-3.75,3.75-3.75,3.75,1.68,3.75,3.75-1.68,3.75-3.75,3.75Zm1.25-11.25c-2.07,0-3.75-1.68-3.75-3.75s1.68-3.75,3.75-3.75,3.75,1.68,3.75,3.75-1.68,3.75-3.75,3.75Z" style="fill:#fff;"/></g></g></svg>