<?xml version="1.0" encoding="UTF-8"?><svg id="a" xmlns="http://www.w3.org/2000/svg" viewBox="0 0 140.31 140.31"><defs><style>.c{fill:#fff;}</style></defs><g id="b"><path class="c" d="M113.33,70.19c0-2.97-2.38-5.38-5.31-5.38h-32.48V32.39h0c0-2.98-2.42-5.4-5.4-5.4s-5.4,2.42-5.4,5.4v37.78c0,2.98,2.42,5.4,5.4,5.4h37.88c2.93,0,5.3-2.41,5.3-5.38m16.21-.03c0,32.8-26.58,59.39-59.38,59.39S10.78,102.96,10.78,70.16,37.37,10.77,70.16,10.77c32.79,0,59.38,26.59,59.38,59.39m10.78,0C140.31,31.41,108.9,0,70.16,0S0,31.41,0,70.16s31.41,70.16,70.16,70.16,70.16-31.41,70.16-70.16"/></g></svg>