<?xml version="1.0" encoding="UTF-8"?><svg id="a" xmlns="http://www.w3.org/2000/svg" viewBox="0 0 221.51 297"><defs><style>.b{fill:#fff;}</style></defs><path class="b" d="M110.75,0C49.68,0,0,49.7,0,110.8c0,91.03,99.73,179.9,103.98,183.65,1.94,1.7,4.36,2.56,6.78,2.56s4.84-.85,6.78-2.56c4.24-3.74,103.98-92.62,103.98-183.65C221.51,49.7,171.82,0,110.75,0Zm0,272.69c-22.05-21.37-90.24-93.03-90.24-161.89,0-49.78,40.48-90.29,90.24-90.29s90.24,40.5,90.24,90.29c0,68.86-68.19,140.53-90.24,161.89Z"/><path class="b" d="M110.75,59.18c-28.27,0-51.27,23.15-51.27,51.61s23,51.61,51.27,51.61,51.27-23.15,51.27-51.61-23-51.61-51.27-51.61Zm0,82.72c-16.96,0-30.76-13.95-30.76-31.1s13.8-31.1,30.76-31.1,30.76,13.95,30.76,31.1-13.8,31.1-30.76,31.1Z"/></svg>