<?xml version="1.0" encoding="UTF-8"?><svg id="a" xmlns="http://www.w3.org/2000/svg" viewBox="0 0 19.5 9.5"><path d="M4.75,8.75c2.21,0,4-1.79,4-4S6.96,.75,4.75,.75,.75,2.54,.75,4.75s1.79,4,4,4Z" style="fill:none; stroke:#fff; stroke-linecap:round; stroke-linejoin:round; stroke-width:1.5px;"/><path d="M12.75,8.75c1.1,0,2-1.79,2-4S13.85,.75,12.75,.75s-2,1.79-2,4,.9,4,2,4Z" style="fill:none; stroke:#fff; stroke-linecap:round; stroke-linejoin:round; stroke-width:1.5px;"/><path d="M17.75,8.75c.55,0,1-1.79,1-4s-.45-4-1-4-1,1.79-1,4,.45,4,1,4Z" style="fill:none; stroke:#fff; stroke-linecap:round; stroke-linejoin:round; stroke-width:1.5px;"/></svg>