<?xml version="1.0" encoding="UTF-8"?><svg id="a" xmlns="http://www.w3.org/2000/svg" viewBox="0 0 999.12 999.12"><defs><style>.b{fill:#fff;}.c{fill:#231f20;}</style></defs><rect class="b" width="999.12" height="999.12" rx="128.46" ry="128.46"/><path class="c" d="M873.75,908.72H129.17c0-205.61,166.68-372.29,372.29-372.29s372.29,166.68,372.29,372.29Z"/><circle class="c" cx="501.46" cy="298.72" r="175.06"/><path class="b" d="M870.66,100c15.69,0,28.46,12.77,28.46,28.46V870.66c0,15.69-12.77,28.46-28.46,28.46H128.46c-15.69,0-28.46-12.77-28.46-28.46V128.46c0-15.69,12.77-28.46,28.46-28.46H870.66M870.66,0H128.46C57.51,0,0,57.51,0,128.46V870.66C0,941.61,57.51,999.12,128.46,999.12H870.66c70.95,0,128.46-57.51,128.46-128.46V128.46C999.12,57.51,941.61,0,870.66,0h0Z"/></svg>