<?xml version="1.0" encoding="UTF-8"?><svg id="a" xmlns="http://www.w3.org/2000/svg" viewBox="0 0 240 240"><path d="M199.12,72.03c7.82,.06,15.63,.1,23.44,.17,8.89,.08,12.52,4.56,10.29,12.99-9.74,36.84-19.53,73.66-29.36,110.48-1.75,6.57-4.13,8.25-11.1,8.25-58.88,.02-117.75,.03-176.63,.02-6.08,0-8.13-1.65-9.33-7.22,2.27,1.29,4.05,1.35,4.82-1.72,.52-2.09,1.28-4.12,1.84-6.2,9.53-35.7,19.02-71.42,28.57-107.12,2.1-7.86,4.4-9.49,12.72-9.5,13.64-.01,27.29,.01,40.93,0,34.6-.04,69.21-.1,103.81-.15Z" style="fill:#fed578;"/><path d="M199.12,72.03c-34.6,.05-69.21,.11-103.81,.15-13.64,.02-27.29,0-40.93,0-8.32,0-10.61,1.64-12.72,9.5-9.55,35.7-19.04,71.41-28.57,107.12-.56,2.08-1.31,4.11-1.84,6.2-.77,3.07-2.55,3.01-4.82,1.72-.11-1.65-.33-3.3-.33-4.96-.08-48.08-.14-96.16-.19-144.23-.01-9.04,2.44-11.5,11.47-11.51,14.81-.01,29.61-.03,44.42,.01,7.2,.02,10.18,3.12,10.23,10.38,0,.83,.14,1.69-.02,2.49-.95,4.71,1.4,5.29,5.49,5.27,36.1-.15,72.2-.09,108.3-.09,11.12,0,13.3,2.21,13.3,13.44,0,1.5,0,2.99,0,4.49Z" style="fill:#eaa301;"/></svg>