<svg enable-background="new 0 0 45 45" viewBox="0 0 45 45" xmlns="http://www.w3.org/2000/svg" xmlns:xlink="http://www.w3.org/1999/xlink"><clipPath id="a"><path d="m0 36h36v-36h-36z"/></clipPath><g clip-path="url(#a)" transform="matrix(1.25 0 0 -1.25 0 45)"><path d="m0 0c-.395-1.346-2.46-1.924-4.613-1.291-2.153.632-3.578 2.234-3.183 3.581.395 1.346 2.461 1.924 4.613 1.29 2.154-.631 3.578-2.233 3.183-3.58m-2.849 24.447c-9.941 0-18-6.908-18-15.429 0-1.066.127-2.107.367-3.112 1.779-3.06 3.01-1.128 8.633 1.684 5.727 2.864 0-4-2-8-.615-1.231-.281-2.272.56-3.124 2.946-1.804 6.544-2.876 10.44-2.876 9.942 0 18 6.907 18 15.428s-8.058 15.429-18 15.429" fill="#d99e82" transform="translate(20.849 8.41)"/><path d="m0 0c0-1.657-1.343-3-3-3s-3 1.343-3 3 1.343 3 3 3 3-1.343 3-3" fill="#5c913b" transform="translate(13 25)"/><path d="m0 0c0-1.657-1.344-3-3-3-1.657 0-3 1.343-3 3s1.343 3 3 3c1.656 0 3-1.343 3-3" fill="#269" transform="translate(23 27)"/><path d="m0 0c0-1.657-1.344-3-3-3s-3 1.343-3 3 1.344 3 3 3 3-1.343 3-3" fill="#dd2e44" transform="translate(32 21)"/><path d="m0 0c0-1.656-1.344-3-3-3s-3 1.344-3 3 1.344 3 3 3 3-1.344 3-3" fill="#ffcc4d" transform="translate(31 12)"/></g></svg>