<?xml version="1.0" encoding="UTF-8"?><svg xmlns="http://www.w3.org/2000/svg" viewBox="0 0 281.79 366.01"><g id="a"/><g id="b"><g id="c"><g><path d="M107.85,362.03c-1.79,.56-3.42-.29-5.07-.68-19.98-4.72-39.56-10.65-57.79-20.35-9.69-5.16-18.77-11.17-25.7-19.9-2.01-2.53-3.89-5.17-5.06-8.25-.25-.66-.63-1.2,.3-1.79,5.58,3.84,11.92,5.83,18.66,6.55,2.17,.23,4.91,1.01,6.18-1.29,1.35-2.45-.83-4.41-2.35-6.07-3.82-4.18-7.78-8.23-11.35-12.64-10.82-13.37-19.12-28.03-23.14-44.91-5.05-21.23-2.38-41.69,6.05-61.57,5.04-11.89,11.83-22.73,20.26-32.54,.59-.69,1.23-1.33,2.28-2.45,.32,3.5,.55,6.49,.89,9.47,1.06,9.48,2.78,18.81,7.48,27.28,5.16,9.3,13.25,11.55,22.6,6.35,3.13-1.74,6.05-3.82,8.9-6.49-.14-6.48,.03-13.13,.42-19.77,1.31-22.4,4.55-44.41,13.27-65.3,3.23-7.73,7.4-14.91,12.73-21.39,.53-.64,1.08-1.26,1.64-1.91,1.6,.6,2.97,1.16,4.37,1.64,10.17,3.49,18.57-.24,22.96-10.07,3.26-7.3,4.31-15.05,4.51-22.9,.45-16.99,.54-33.99,.24-50.99-.01-.65,0-1.31,0-1.91,.81-.42,1.21,.14,1.66,.44,22.59,14.97,43.52,31.92,61.85,51.94,12.27,13.41,23,27.9,29.74,44.98,4.21,10.67,6.3,21.69,5.35,33.25-.92,11.23-.94,22.48,1.14,33.63,.74,3.95,1.93,7.78,4.2,11.15,2.87,4.25,6.96,5.59,11.51,3.88,.54-.2,1.15-.42,1.52-.82,5.41-5.95,10-12.32,10.03-20.85,0-1.23-.24-2.45-.4-4.05,1.46,.82,2.06,2,2.71,3.07,4.51,7.33,8.01,15.15,11,23.21,6.67,17.96,10.73,36.44,10.29,55.69-.57,24.59-8.9,45.9-27.19,62.85-3.92,3.63-8.11,6.94-12.64,9.77-2.77,1.73-4.41,4.28-5.58,7.15-1.25,3.08-.19,4.74,3.13,4.77,5.28,.05,10.43-.81,15.48-3.28-1.63,3.45-3.89,6.17-6.34,8.74-10.38,10.87-23.14,18.14-36.82,23.92-15.94,6.74-32.44,11.61-49.56,14.29-1.45,.23-2.86,.71-4.36,.55-.17,0-.34,0-.51,0l-.15-.08-.17,.05c.1-.47,.35-.8,.84-.91,1,.18,1.76-.41,2.56-.82,11.65-5.96,22.65-12.88,32.8-21.19,10.47-8.56,19.98-18.03,28.43-28.58,8.45-10.55,15.73-21.84,21.71-33.97,.69-1.41,1.5-2.79,1.51-4.44,.08-.06,.17-.12-.35,.25,.47-.42,.39-.35,.32-.28-1.69,.11-3.19,.9-4.77,1.38-3.98,1.2-7.96,2.39-12.19,2.14-3.78-.23-5.52-2.58-4.73-6.19,.6-2.73,1.72-5.22,3.22-7.53,7.01-10.77,11.13-22.27,8.98-35.35-.66-4.01-1.74-7.9-3.98-11.55-1.05,.39-2.02,.64-2.89,1.09-5.13,2.67-10.57,4.4-16.27,5.3-4.07,.64-7.97,.03-11.49-2.19-5.02-3.17-7.59-10.72-6.2-17.81,1.89-9.64,2.29-19.42,2.75-29.19,.29-5.97-.48-11.93-.83-17.9-.49-8.24-1.95-16.29-3.9-24.27-5.01-20.45-13.57-39.22-26.86-55.68-3.83-4.74-8.05-9.09-13.26-12.34-1.42-.88-2.94-1.95-5.15-.69,0,3.29,.46,6.76-.08,10.07-2.28,14.04-7.38,27.03-15.29,38.89-5.03,7.54-9.99,15.12-14.2,23.16-6.29,12.02-11.78,24.38-16.23,37.23-4.13,11.94-7.46,24.08-10.16,36.41-2.15,9.78-4.77,19.42-11.01,27.54-5.04,6.56-11.49,9.99-20.01,8.01-6.81-1.58-12.47-5.29-17.81-9.63-2.47-2-4.71-4.26-7.24-6.84-1,3.98-1.71,7.41-1.99,10.97-.89,11.31-.71,22.54,1.57,33.72,2.45,12.02,6.8,23.31,12.96,33.85,6.84,11.7,15.53,21.91,25.69,30.93,7.8,6.93,16.28,12.86,25.08,18.39,3.06,1.93,6.45,3.32,9.26,5.67Z" style="fill:#f94f2d;"/><path d="M107.85,362.03c-2.8-2.35-6.19-3.74-9.26-5.67-8.8-5.53-17.28-11.46-25.08-18.39-10.16-9.02-18.85-19.23-25.69-30.93-6.16-10.54-10.51-21.83-12.96-33.85-2.28-11.18-2.46-22.4-1.57-33.72,.28-3.56,.98-7,1.99-10.97,2.53,2.58,4.77,4.84,7.24,6.84,5.34,4.33,11,8.05,17.81,9.63,8.52,1.97,14.97-1.46,20.01-8.01,6.24-8.12,8.86-17.76,11.01-27.54,2.71-12.33,6.03-24.47,10.16-36.41,4.45-12.85,9.94-25.21,16.23-37.23,4.21-8.04,9.16-15.62,14.2-23.16,7.91-11.85,13.01-24.85,15.29-38.89,.54-3.31,.08-6.78,.08-10.07,2.21-1.26,3.73-.2,5.15,.69,5.21,3.25,9.44,7.6,13.26,12.34,13.29,16.46,21.85,35.23,26.86,55.68,1.95,7.97,3.41,16.03,3.9,24.27,.35,5.96,1.12,11.93,.83,17.9-.47,9.76-.87,19.55-2.75,29.19-1.39,7.09,1.18,14.64,6.2,17.81,3.52,2.23,7.42,2.83,11.49,2.19,5.7-.9,11.14-2.64,16.27-5.3,.87-.45,1.84-.7,2.89-1.09,2.24,3.65,3.32,7.54,3.98,11.55,2.15,13.08-1.97,24.58-8.98,35.35-1.5,2.31-2.63,4.79-3.22,7.53-.79,3.62,.95,5.97,4.73,6.19,4.23,.26,8.21-.94,12.19-2.14,1.59-.48,3.08-1.27,4.77-1.38l.04,.04c0,1.65-.81,3.03-1.51,4.44-5.97,12.13-13.26,23.42-21.71,33.97-8.45,10.55-17.97,20.01-28.43,28.58-10.15,8.31-21.16,15.23-32.8,21.19-.8,.41-1.57,.99-2.56,.82-.14-.78,.32-1.21,.91-1.56l.57-.48h-.02c.98,.09,1.46-.68,2.05-1.24,7.89-7.41,13.93-16.2,18.96-25.71,4.9-9.25,9.31-18.74,12.77-28.63,2.92-8.35,6.08-16.65,7.74-25.39l.11-.2-.11,.21c-.88,.03-1.53,.56-2.25,.98-3.32,1.93-6.42,4.24-10.1,5.99,0-.6-.09-.95,.01-1.22,2.96-7.65,5.96-15.3,8.92-22.95,1.76-4.55,3.77-9.02,4.93-13.79,.43-.21,.49-.59,.48-1.01,.07-.06,.15-.12,.08-.07,.06-.06,0,0-.07,.08-.41,.2-.5,.57-.51,.98-7.65,9.56-17.6,15.18-29.6,17.3-4.06,.71-7.67,.29-10.61-3.17-2.8-3.29-4.06-7.2-5.24-11.15-2.28-7.6-2.54-15.52-2.95-23.36-.52-10.05-.09-20.13,.54-30.17,.18-2.86,.44-5.78,.67-8.66,.28-3.49,1.21-7.02,.52-10.59-.39-.05-.66-.17-.86-.09-.62,.24-1.22,.52-1.81,.83-12.59,6.47-23.34,15.15-31.82,26.55-6.36,8.54-11.07,17.92-14.12,28.13-2.32,7.8-4.01,15.72-4.63,23.84-.32,4.13-.76,8.33-.35,12.42,.38,3.8-.29,7.62,.85,11.3-3.72,2.85-7.51,4.45-12.11,4.4-4.62-.05-8.35-2.18-12.21-4.64-.8,4.73,.07,8.97,1.09,13.12,2.73,11.09,6.76,21.7,12.3,31.72,8.16,14.76,18.66,27.38,33.16,36.36,.44,.27,1.24,.35,.76,1.21-5.92-.37-11.82-.88-17.6-2.28,.07-.13,.13-.27,.22-.45l-.71-.1,.02,.05Z" style="fill:#fc9d50;"/><path d="M200.87,280.45c-1.66,8.74-4.82,17.04-7.74,25.39-3.46,9.89-7.87,19.38-12.77,28.63-5.04,9.51-11.07,18.3-18.96,25.71-.59,.56-1.07,1.32-2.05,1.24,.96-3.15,3.14-5.63,4.6-8.52,7.2-14.19,12.84-29.01,17.86-44.07,.38-1.13,1.13-2.21,.9-3.73-1.38,1.21-2.49,2.47-3.86,3.34-6.79,4.3-15.21,3.7-21.34-4.25-7.07-9.18-10.8-19.9-14.12-30.8-1.03-3.39-1.52-6.96-3.1-10.65-3.35,8.76-6.55,17.04-9.68,25.35-2.49,6.6-4.81,13.26-7.88,19.62-2.75,5.7-7.09,7.04-12.77,4.36-1.94-.91-3.46-2.41-5.16-3.56-.88,.98-.89,1.89-.9,2.82-.06,4.12,.82,8.08,2.17,11.93,4.38,12.48,11.79,23.14,20.08,33.27,2.18,2.67,4.42,5.29,6.64,7.93-.79,.84-1.74,.29-2.47,.68-1.47-.11-2.93-.21-4.4-.32,.47-.86-.32-.94-.76-1.21-14.5-8.98-25-21.6-33.16-36.36-5.54-10.02-9.57-20.62-12.3-31.72-1.02-4.15-1.89-8.39-1.09-13.12,3.86,2.47,7.59,4.59,12.21,4.64,4.6,.05,8.39-1.55,12.11-4.4-1.13-3.68-.47-7.51-.85-11.3-.41-4.09,.04-8.29,.35-12.42,.62-8.12,2.31-16.05,4.63-23.84,3.04-10.21,7.76-19.59,14.12-28.13,8.48-11.39,19.23-20.08,31.82-26.55,.59-.3,1.19-.59,1.81-.83,.2-.08,.47,.04,.86,.09,.69,3.57-.24,7.1-.52,10.59-.23,2.87-.49,5.79-.67,8.66-.63,10.04-1.06,20.12-.54,30.17,.4,7.84,.67,15.75,2.95,23.36,1.18,3.95,2.44,7.86,5.24,11.15,2.95,3.46,6.56,3.88,10.61,3.17,12-2.11,21.95-7.74,29.6-17.3h.02c-1.15,4.79-3.17,9.25-4.93,13.81-2.96,7.66-5.96,15.3-8.92,22.95-.11,.27-.01,.62-.01,1.22,3.69-1.74,6.79-4.05,10.1-5.99,.72-.42,1.37-.95,2.25-.98h0Z" style="fill:#fcdc62;"/><path d="M130.33,365.12c.72-.39,1.67,.16,2.47-.68-2.22-2.64-4.46-5.26-6.64-7.93-8.29-10.13-15.7-20.79-20.08-33.27-1.35-3.85-2.23-7.81-2.17-11.93,.01-.93,.03-1.84,.9-2.82,1.69,1.15,3.22,2.65,5.16,3.56,5.68,2.68,10.02,1.34,12.77-4.36,3.07-6.35,5.39-13.02,7.88-19.62,3.13-8.31,6.33-16.59,9.68-25.35,1.57,3.7,2.06,7.26,3.1,10.65,3.33,10.9,7.05,21.61,14.12,30.8,6.13,7.96,14.55,8.55,21.34,4.25,1.37-.87,2.49-2.13,3.86-3.34,.23,1.52-.52,2.6-.9,3.73-5.03,15.07-10.67,29.88-17.86,44.07-1.46,2.88-3.64,5.37-4.6,8.52h.02c-.19,.16-.38,.32-.57,.48-.59,.35-1.05,.78-.91,1.56-.5,.1-.75,.43-.84,.91-.66,.36-1.35,.6-2.13,.57-6.04-.21-12.04,.84-18.09,.53-1.47-.08-2.96-.14-4.43,.35-.74,.25-1.69,.42-2.07-.7Z" style="fill:#fbf9cb;"/><path d="M16.23,147.04c-.42-4.1-.38-7.92-.19-11.71,.36-7.18,1.62-14.2,4.16-20.96,2.49-6.61,6.41-12.13,11.97-16.57,5.68-4.53,7.78-10.71,7.65-17.71,3.6,2.91,6.39,16.66,5.39,26.39-1.85,18.01-13.86,32.15-28.99,40.56Z" style="fill:#f94f2d;"/></g></g></g></svg>