<?xml version="1.0" encoding="UTF-8"?><svg id="a" xmlns="http://www.w3.org/2000/svg" viewBox="0 0 23.5 19.44"><path d="M22.75,.76s-2.02,1.19-3.14,1.53c-.6-.69-1.4-1.18-2.29-1.41-.89-.22-1.83-.17-2.68,.16-.86,.33-1.59,.91-2.11,1.67-.52,.76-.79,1.66-.77,2.58v1c-1.76,.05-3.5-.34-5.07-1.13-1.57-.79-2.92-1.96-3.93-3.4,0,0-4,9,5,13-2.06,1.4-4.51,2.1-7,2,9,5,20,0,20-11.5,0-.28-.03-.56-.08-.83,1.02-1.01,2.08-3.67,2.08-3.67Z" style="fill:none; stroke:#fff; stroke-linecap:round; stroke-linejoin:round; stroke-width:1.5px;"/></svg>