<?xml version="1.0" encoding="UTF-8"?><svg id="a" xmlns="http://www.w3.org/2000/svg" viewBox="0 0 920.35 1015.03"><defs><style>.b{fill:#fffffd;}</style></defs><path class="b" d="M93.33,979.54c0,19.55,15.94,35.49,35.49,35.49H884.87c19.55,0,35.49-15.94,35.49-35.49,0-27.99-2.81-56.11-8.44-83.29-5.49-26.51-13.52-52.63-24.1-77.67-10.31-24.51-23.17-48.07-38.16-70.3-14.73-21.83-31.74-42.45-50.48-61.2-18.75-18.75-39.24-35.62-61.2-50.48-22.09-15-45.8-27.72-70.3-38.16-4.29-1.87-8.7-3.48-12.99-5.22,14.06-9.37,27.18-20.35,39.5-32.54,49.55-49.55,76.86-115.56,76.86-185.73s-27.32-136.05-76.86-185.73c-49.55-49.55-115.56-76.86-185.73-76.86s-136.05,27.32-185.73,76.86c-49.68,49.55-76.86,115.56-76.86,185.73s27.32,136.05,76.86,185.73c11.92,11.92,24.64,22.5,38.3,31.74-5.09,1.87-10.18,3.88-15.13,6.03-24.51,10.31-48.07,23.17-70.3,38.16-21.83,14.73-42.45,31.74-61.2,50.48-18.75,18.75-35.62,39.24-50.48,61.2-15,22.09-27.72,45.8-38.16,70.3-10.58,24.91-18.61,51.15-24.1,77.67-5.49,27.18-8.3,55.17-8.3,83.29h0Zm428.37-413.11c-9.24-.27-18.61-.4-27.85-.13-98.96-7.5-177.16-90.39-177.16-191.22s85.97-191.76,191.76-191.76,191.76,85.97,191.76,191.76c-.13,101.23-79.01,184.39-178.5,191.36h0ZM166.05,944.06c1.21-11.38,2.95-22.5,5.09-33.61,4.55-21.96,11.25-43.65,19.95-64.28,8.57-20.22,19.15-39.9,31.6-58.12,12.32-18.21,26.38-35.22,41.91-50.75,15.53-15.53,32.54-29.59,50.75-41.91,18.35-12.32,37.9-23.03,58.12-31.6,20.62-8.7,42.32-15.4,64.28-19.95,18.08-3.75,36.56-5.89,55.17-6.56,5.22,.27,10.31,.54,15.53,.54,4.82,0,9.51-.13,14.33-.4,17.94,.8,35.75,2.95,53.03,6.56,21.96,4.55,43.65,11.25,64.28,19.95,20.35,8.57,39.9,19.15,58.12,31.6,18.21,12.32,35.22,26.38,50.75,41.91,15.53,15.53,29.59,32.54,41.91,50.75,12.32,18.35,23.03,37.9,31.6,58.12,8.7,20.62,15.4,42.32,19.95,64.28,2.28,11.11,4.02,22.36,5.09,33.61H166.05v-.13Z"/><path class="b" d="M34.82,1014.89c19.28,0,34.82-15.53,34.82-34.82,0-150.78,75.66-289.78,202.6-371.86,8.3-5.36,13.79-13.93,15.4-23.57,1.61-9.64-.94-19.55-7.1-27.32l-11.78-14.86c-38.16-51.29-58.25-112.35-58.25-176.49,0-163.37,132.97-296.34,296.34-296.34,19.28,0,34.82-15.53,34.82-34.82S526.13,0,506.84,0c-97.75,0-189.61,38.03-258.71,107.13-69.1,69.1-107.13,160.96-107.13,258.71,0,73.92,21.69,144.62,62.94,205.15-57.18,43.25-104.98,98.02-139.67,160.42C22.23,807.07,0,893.04,0,980.08c0,19.15,15.53,34.82,34.82,34.82h0Z"/></svg>