<?xml version="1.0" encoding="UTF-8"?><svg xmlns="http://www.w3.org/2000/svg" xmlns:xlink="http://www.w3.org/1999/xlink" viewBox="0 0 745.54 537.7"><defs><style>.h{fill:url(#e);}.i{fill:url(#d);}.j{fill:#fcfcfc;}.k{fill:url(#f);}.k,.l{isolation:isolate;opacity:.25;}.l{fill:url(#g);}</style><linearGradient id="d" x1="504.1" y1="570.76" x2="748.66" y2="-277.59" gradientTransform="translate(0 537.7) scale(1 -1)" gradientUnits="userSpaceOnUse"><stop offset="0" stop-color="#fff"/><stop offset=".39" stop-color="#fffdfe"/><stop offset=".74" stop-color="#fcf7f4" stop-opacity="0"/><stop offset="1" stop-color="#fcf7f4" stop-opacity="0"/></linearGradient><linearGradient id="e" x1="244.91" y1="-26.86" x2=".35" y2="723.39" xlink:href="#d"/><linearGradient id="f" x1="182.83" y1="-95.02" x2="317.12" y2="203.02" gradientTransform="translate(0 537.7) scale(1 -1)" gradientUnits="userSpaceOnUse"><stop offset="0" stop-color="#000"/><stop offset=".06" stop-color="#000" stop-opacity=".86"/><stop offset="1" stop-color="#000" stop-opacity="0"/></linearGradient><linearGradient id="g" x1="-213.94" y1="862.88" x2="-79.64" y2="1160.91" gradientTransform="translate(349.59 -957.9) rotate(-180) scale(1 -1)" xlink:href="#f"/></defs><g id="a"/><g id="b"><g id="c"><g><g><path d="M459.99,230.56c.03-7.91,1.51-14.75,4.29-21.4,4.36-10.45,12.07-19.36,21.7-25.32,8.61-5.32,17.86-8.17,29-8.25,.36,0,.66,.09,1.02,.1,7.48,.15,14.03,1.54,20.37,4.18,10.49,4.38,19.44,12.13,25.39,21.82,5.29,8.6,8.11,17.81,8.19,28.92,0,0-7.49-239.16-213.09-167.81-12.37,11.66-23.47,24.64-33.02,38.78-24.85,36.72-39.43,81.39-39.44,128.85v11.08h175.59v-10.95Z" style="fill:#fcfcfc;"/><path d="M569.95,230.61v224.34c.02,45.71,37.03,82.73,82.74,82.75h92.85V230.48c0-31.6-6.45-62.07-18.15-89.7-17.56-41.46-46.69-76.52-83.44-101.35h0C607.24,14.59,562.56,0,515.1,0h-1.07l-.72,.05v.02c-16.98,.11-33.57,2.24-49.62,5.87-13.28,3.01-26.2,7-38.5,12.21h-.02c-25.5,10.81-48.55,26.02-68.31,44.65,205.6-71.35,213.09,167.81,213.09,167.81h0Z" style="fill:url(#d);"/><g><path d="M285.55,307.14c-.03,7.91-1.51,14.75-4.29,21.4-4.36,10.45-12.07,19.36-21.7,25.32-8.61,5.32-17.86,8.17-29,8.25-.36,0-.66-.09-1.02-.1-7.48-.15-14.03-1.54-20.37-4.18-10.49-4.38-19.44-12.13-25.39-21.82-5.29-8.6-8.11-17.81-8.19-28.92,0,0,7.49,239.16,213.09,167.81,12.37-11.66,23.47-24.64,33.02-38.78,24.85-36.72,39.43-81.39,39.44-128.85v-11.08h-175.59v10.95h0Z" style="fill:#fcfcfc;"/><path d="M175.59,307.09V82.75C175.57,37.04,138.56,.02,92.85,0H0V307.22c0,31.6,6.45,62.07,18.15,89.7,17.56,41.46,46.69,76.52,83.44,101.35h0c36.71,24.84,81.39,39.43,128.85,39.43h1.07l.72-.05v-.02c16.98-.11,33.57-2.24,49.62-5.87,13.28-3.01,26.2-7,38.5-12.21h.02c25.5-10.81,48.55-26.02,68.31-44.65-205.6,71.35-213.09-167.81-213.09-167.81h0Z" style="fill:url(#e);"/></g></g><path d="M285.55,307.14c-.03,7.91-1.51,14.75-4.29,21.4-4.36,10.45-12.07,19.36-21.7,25.32-8.61,5.32-17.86,8.17-29,8.25-.36,0-.66-.09-1.02-.1-7.48-.15-14.03-1.54-20.37-4.18-10.49-4.38-19.44-12.13-25.39-21.82-5.29-8.6-8.11-17.81-8.19-28.92,0,0,7.49,239.16,213.09,167.81,12.37-11.66,23.47-24.64,33.02-38.78,24.85-36.72,39.43-81.39,39.44-128.85v-11.08h-175.59v10.95h0Z" style="fill:url(#f); isolation:isolate; opacity:.25;"/><path d="M460.8,230.56c.03-7.91,1.51-14.75,4.29-21.4,4.36-10.45,12.07-19.36,21.7-25.32,8.61-5.32,17.86-8.17,29-8.25,.36,0,.66,.09,1.02,.1,7.48,.15,14.03,1.54,20.37,4.18,10.49,4.38,19.44,12.13,25.39,21.82,5.29,8.6,8.11,17.81,8.19,28.92,0,0-7.49-239.16-213.09-167.81-12.37,11.66-23.47,24.64-33.02,38.78-24.85,36.72-39.43,81.39-39.44,128.85v11.08h175.59v-10.95Z" style="fill:url(#g); isolation:isolate; opacity:.25;"/></g></g></g></svg>